<?xml version="1.0" standalone="no"?><svg xmlns="http://www.w3.org/2000/svg" viewBox="0 0 1440 320"><path fill="#0099ff" fill-opacity="1" d="M0,192L30,197.3C60,203,120,213,180,197.3C240,181,300,139,360,149.3C420,160,480,224,540,250.7C600,277,660,267,720,229.3C780,192,840,128,900,117.3C960,107,1020,149,1080,154.7C1140,160,1200,128,1260,101.3C1320,75,1380,53,1410,42.7L1440,32L1440,320L1410,320C1380,320,1320,320,1260,320C1200,320,1140,320,1080,320C1020,320,960,320,900,320C840,320,780,320,720,320C660,320,600,320,540,320C480,320,420,320,360,320C300,320,240,320,180,320C120,320,60,320,30,320L0,320Z"></path></svg>